<?xml version="1.0" encoding="UTF-8"?>
<svg width="444px" height="144px" viewBox="0 0 444 144" version="1.1" xmlns="http://www.w3.org/2000/svg" xmlns:xlink="http://www.w3.org/1999/xlink">
    <!-- Generator: Sketch 51.3 (57544) - http://www.bohemiancoding.com/sketch -->
    <title>Netpeak Spider dark logo big</title>
    <desc>Created with Sketch.</desc>
    <defs></defs>
    <g id="Page-1" stroke="none" stroke-width="1" fill="none" fill-rule="evenodd">
        <g id="NS-logo-dark-Copy-14">
            <g id="Logo-Copy" transform="translate(162.000000, 18.000000)" fill="#172A3A">
                <path d="M26.7561676,1.78176318 L26.7561676,31.4778163 L22.1534185,31.4778163 L5.54910871,11.369346 L5.54910871,31.4778163 L0,31.4778163 L0,1.78176318 L4.60274908,1.78176318 L21.2070589,21.8902333 L21.2070589,1.78176318 L26.7561676,1.78176318 Z M55.8352177,21.8478104 L37.8113686,21.8478104 C38.1268234,23.5164541 38.9512951,24.8386223 40.2848086,25.8143546 C41.6183218,26.790087 43.2744346,27.2779458 45.2531965,27.2779458 C47.7768349,27.2779458 49.8559375,26.4577773 51.4905667,24.8174157 L54.3726619,28.0839816 C53.3402647,29.3001117 52.0354483,30.2192662 50.4581746,30.8414722 C48.8809006,31.4636782 47.1029095,31.7747767 45.1241476,31.7747767 C42.6005092,31.7747767 40.3780201,31.2798475 38.4566137,30.2899741 C36.5352073,29.3001007 35.0511583,27.9213691 34.004422,26.1537381 C32.9576857,24.3861071 32.4343252,22.3851787 32.4343252,20.1508931 C32.4343252,17.9448896 32.9433469,15.9581021 33.9614056,14.1904711 C34.9794643,12.42284 36.3918202,11.0441085 38.1985156,10.0542351 C40.0052113,9.0643617 42.0412981,8.56943244 44.3068369,8.56943244 C46.5436981,8.56943244 48.5439382,9.0572913 50.3076172,10.0330236 C52.0712962,11.008756 53.4478057,12.3804171 54.4371865,14.1480481 C55.4265676,15.9156792 55.9212505,17.95903 55.9212505,20.2781619 C55.9212505,20.6458292 55.8925732,21.1690401 55.8352177,21.8478104 Z M39.9406777,14.3177398 C38.7505528,15.3217543 38.0264515,16.6580633 37.7683522,18.326707 L50.8023052,18.326707 C50.5728835,16.6863454 49.8702904,15.3571068 48.6945043,14.3389513 C47.5187182,13.3207958 46.0561771,12.8117257 44.3068369,12.8117257 C42.5861746,12.8117257 41.1308026,13.3137254 39.9406777,14.3177398 Z M74.8914592,30.2475511 C74.2605499,30.7566289 73.4934325,31.1384314 72.5900848,31.3929703 C71.6867371,31.6475092 70.7332174,31.7747767 69.7294978,31.7747767 C67.2058594,31.7747767 65.2558045,31.1242981 63.8792746,29.8233217 C62.5027447,28.5223454 61.8144901,26.6274733 61.8144901,24.1386488 L61.8144901,13.2359551 L58.0290514,13.2359551 L58.0290514,8.99366178 L61.8144901,8.99366178 L61.8144901,3.81806397 L67.1915332,3.81806397 L67.1915332,8.99366178 L73.3428709,8.99366178 L73.3428709,13.2359551 L67.1915332,13.2359551 L67.1915332,24.01138 C67.1915332,25.1143818 67.4639674,25.9557615 68.0088439,26.5355445 C68.5537204,27.1153275 69.3423454,27.4052146 70.3747429,27.4052146 C71.5792066,27.4052146 72.5829115,27.0941162 73.3858873,26.4719101 L74.8914592,30.2475511 Z M98.0557621,10.0118122 C99.8194411,10.9734034 101.20312,12.3309237 102.206839,14.0844137 C103.210559,15.8379037 103.712412,17.8600433 103.712412,20.1508931 C103.712412,22.4417429 103.210559,24.4709529 102.206839,26.238584 C101.20312,28.006215 99.8194411,29.3708057 98.0557621,30.3323971 C96.2920828,31.2939883 94.2918427,31.7747767 92.0549815,31.7747767 C88.9577893,31.7747767 86.5058818,30.7566364 84.6991864,28.7203255 L84.6991864,39.7078651 L79.322143,39.7078651 L79.322143,8.82397005 L84.4410883,8.82397005 L84.4410883,11.7935753 C85.3300972,10.7188557 86.4270031,9.912828 87.7318387,9.37546818 C89.0366746,8.83810833 90.4777078,8.56943244 92.0549815,8.56943244 C94.2918427,8.56943244 96.2920828,9.05022087 98.0557621,10.0118122 Z M96.3351082,25.284068 C97.6112662,23.9830915 98.2493356,22.2720504 98.2493356,20.1508931 C98.2493356,18.0297359 97.6112662,16.3186947 96.3351082,15.0177182 C95.0589502,13.7167418 93.4315147,13.0662633 91.4527528,13.0662633 C90.162256,13.0662633 89.0008261,13.3561505 87.9684286,13.9359334 C86.9360311,14.5157164 86.1187288,15.3429553 85.5164968,16.417675 C84.9142651,17.4923947 84.6131536,18.7367883 84.6131536,20.1508931 C84.6131536,21.5649979 84.9142651,22.8093915 85.5164968,23.8841112 C86.1187288,24.9588309 86.9360311,25.7860698 87.9684286,26.3658528 C89.0008261,26.9456358 90.162256,27.2355229 91.4527528,27.2355229 C93.4315147,27.2355229 95.0589502,26.5850444 96.3351082,25.284068 Z M130.33953,21.8478104 L112.315681,21.8478104 C112.631136,23.5164541 113.455608,24.8386223 114.789121,25.8143546 C116.122634,26.790087 117.778747,27.2779458 119.757509,27.2779458 C122.281147,27.2779458 124.36025,26.4577773 125.994879,24.8174157 L128.876974,28.0839816 C127.844577,29.3001117 126.539761,30.2192662 124.962487,30.8414722 C123.385213,31.4636782 121.607222,31.7747767 119.62846,31.7747767 C117.104822,31.7747767 114.882333,31.2798475 112.960926,30.2899741 C111.03952,29.3001007 109.55547,27.9213691 108.508734,26.1537381 C107.461998,24.3861071 106.938638,22.3851787 106.938638,20.1508931 C106.938638,17.9448896 107.447659,15.9581021 108.465718,14.1904711 C109.483776,12.42284 110.896132,11.0441085 112.702828,10.0542351 C114.509524,9.0643617 116.54561,8.56943244 118.811149,8.56943244 C121.048011,8.56943244 123.048251,9.0572913 124.81193,10.0330236 C126.575609,11.008756 127.952118,12.3804171 128.941499,14.1480481 C129.93088,15.9156792 130.425563,17.95903 130.425563,20.2781619 C130.425563,20.6458292 130.396886,21.1690401 130.33953,21.8478104 Z M114.44499,14.3177398 C113.254865,15.3217543 112.530764,16.6580633 112.272665,18.326707 L125.306618,18.326707 C125.077196,16.6863454 124.374603,15.3571068 123.198816,14.3389513 C122.023031,13.3207958 120.56049,12.8117257 118.811149,12.8117257 C117.090487,12.8117257 115.635115,13.3137254 114.44499,14.3177398 Z M152.12731,10.9663282 C153.919666,12.5642666 154.815831,14.9752792 154.815831,18.1994382 L154.815831,31.4778163 L149.739903,31.4778163 L149.739903,28.7203255 C149.080315,29.7101989 148.141134,30.4667338 146.922332,30.9899524 C145.703529,31.5131713 144.233819,31.7747767 142.513156,31.7747767 C140.792494,31.7747767 139.286937,31.4848897 137.99644,30.9051067 C136.705943,30.3253237 135.709407,29.519296 135.006804,28.4869994 C134.3042,27.4547029 133.952903,26.2880839 133.952903,24.9871075 C133.952903,22.9507965 134.72002,21.3175299 136.254278,20.0872587 C137.788535,18.8569875 140.204596,18.2418611 143.502532,18.2418611 L149.438788,18.2418611 L149.438788,17.9024777 C149.438788,16.3186803 148.958444,15.1025683 147.99774,14.2541054 C147.037037,13.4056426 145.610343,12.9814174 143.717614,12.9814174 C142.427117,12.9814174 141.158148,13.1793892 139.910667,13.5753385 C138.663187,13.9712879 137.609297,14.5227805 136.748966,15.2298329 L134.641165,11.369346 C135.845628,10.4643189 137.293831,9.77141793 138.985816,9.2906223 C140.6778,8.80982667 142.47013,8.56943244 144.362859,8.56943244 C147.746829,8.56943244 150.334953,9.36838968 152.12731,10.9663282 Z M147.223446,27.0021968 C148.270182,26.3941317 149.008622,25.5244703 149.438788,24.3931864 L149.438788,21.7629646 L143.889679,21.7629646 C140.792487,21.7629646 139.243914,22.7669639 139.243914,24.7749928 C139.243914,25.7365841 139.631057,26.5001892 140.405355,27.0658312 C141.179653,27.6314731 142.255051,27.9142898 143.631581,27.9142898 C144.979434,27.9142898 146.17671,27.6102619 147.223446,27.0021968 Z M171.07601,21.7629646 L167.07549,25.4961826 L167.07549,31.4778163 L161.698447,31.4778163 L161.698447,0 L167.07549,0 L167.07549,19.0054739 L178.216724,8.82397005 L184.669176,8.82397005 L175.076531,18.326707 L185.572519,31.4778163 L179.034034,31.4778163 L171.07601,21.7629646 Z" id="Netpeak-Copy" fill="nonzero"></path>
                <path d="M23.94,109.116 C19.2919768,109.116 14.7980217,108.486006 10.458,107.226 C6.1179783,105.965994 2.63201316,104.32801 0,102.312 L4.62,92.064 C7.1400126,93.9120092 10.1359826,95.3959944 13.608,96.516 C17.0800174,97.6360056 20.5519826,98.196 24.024,98.196 C27.8880193,98.196 30.7439908,97.6220057 32.592,96.474 C34.4400092,95.3259943 35.364,93.8000095 35.364,91.896 C35.364,90.495993 34.8180055,89.3340046 33.726,88.41 C32.6339945,87.4859954 31.2340085,86.7440028 29.526,86.184 C27.8179915,85.6239972 25.5080146,85.0080034 22.596,84.336 C18.1159776,83.2719947 14.4480143,82.2080053 11.592,81.144 C8.73598572,80.0799947 6.28601022,78.3720118 4.242,76.02 C2.19798978,73.6679882 1.176,70.5320196 1.176,66.612 C1.176,63.1959829 2.09999076,60.1020139 3.948,57.33 C5.79600924,54.5579861 8.58198138,52.3600081 12.306,50.736 C16.0300186,49.1119919 20.5799731,48.3 25.956,48.3 C29.7080188,48.3 33.3759821,48.7479955 36.96,49.644 C40.5440179,50.5400045 43.6799866,51.8279916 46.368,53.508 L42.168,63.84 C36.7359728,60.7599846 31.3040272,59.22 25.872,59.22 C22.063981,59.22 19.2500091,59.8359938 17.43,61.068 C15.6099909,62.3000062 14.7,63.9239899 14.7,65.94 C14.7,67.9560101 15.7499895,69.4539951 17.85,70.434 C19.9500105,71.4140049 23.1559784,72.3799952 27.468,73.332 C31.9480224,74.3960053 35.6159857,75.4599947 38.472,76.524 C41.3280143,77.5880053 43.7779898,79.2679885 45.822,81.564 C47.8660102,83.8600115 48.888,86.9679804 48.888,90.888 C48.888,94.2480168 47.9500094,97.3139861 46.074,100.086 C44.1979906,102.858014 41.3840188,105.055992 37.632,106.68 C33.8799812,108.304008 29.3160269,109.116 23.94,109.116 Z M84,62.244 C88.200021,62.244 92.0219828,63.2099903 95.466,65.142 C98.9100172,67.0740097 101.61199,69.7899825 103.572,73.29 C105.53201,76.7900175 106.512,80.8639768 106.512,85.512 C106.512,90.1600232 105.53201,94.2339825 103.572,97.734 C101.61199,101.234017 98.9100172,103.94999 95.466,105.882 C92.0219828,107.81401 88.200021,108.78 84,108.78 C78.2319712,108.78 73.6960165,106.960018 70.392,103.32 L70.392,124.404 L57.288,124.404 L57.288,62.916 L69.804,62.916 L69.804,68.124 C73.0520162,64.2039804 77.7839689,62.244 84,62.244 Z M81.732,98.028 C85.0920168,98.028 87.8499892,96.8940113 90.006,94.626 C92.1620108,92.3579887 93.24,89.320019 93.24,85.512 C93.24,81.703981 92.1620108,78.6660113 90.006,76.398 C87.8499892,74.1299887 85.0920168,72.996 81.732,72.996 C78.3719832,72.996 75.6140108,74.1299887 73.458,76.398 C71.3019892,78.6660113 70.224,81.703981 70.224,85.512 C70.224,89.320019 71.3019892,92.3579887 73.458,94.626 C75.6140108,96.8940113 78.3719832,98.028 81.732,98.028 Z M115.248,62.916 L128.352,62.916 L128.352,108.108 L115.248,108.108 L115.248,62.916 Z M121.8,56.616 C119.391988,56.616 117.432008,55.916007 115.92,54.516 C114.407992,53.115993 113.652,51.3800104 113.652,49.308 C113.652,47.2359896 114.407992,45.500007 115.92,44.1 C117.432008,42.699993 119.391988,42 121.8,42 C124.208012,42 126.167992,42.6719933 127.68,44.016 C129.192008,45.3600067 129.948,47.0399899 129.948,49.056 C129.948,51.2400109 129.192008,53.0459929 127.68,54.474 C126.167992,55.9020071 124.208012,56.616 121.8,56.616 Z M186.564,45.78 L186.564,108.108 L174.048,108.108 L174.048,102.9 C170.799984,106.82002 166.096031,108.78 159.936,108.78 C155.679979,108.78 151.830017,107.82801 148.386,105.924 C144.941983,104.01999 142.24001,101.304018 140.28,97.776 C138.31999,94.2479824 137.34,90.1600232 137.34,85.512 C137.34,80.8639768 138.31999,76.7760176 140.28,73.248 C142.24001,69.7199824 144.941983,67.0040095 148.386,65.1 C151.830017,63.1959905 155.679979,62.244 159.936,62.244 C165.704029,62.244 170.211984,64.0639818 173.46,67.704 L173.46,45.78 L186.564,45.78 Z M162.204,98.028 C165.508017,98.028 168.251989,96.8940113 170.436,94.626 C172.620011,92.3579887 173.712,89.320019 173.712,85.512 C173.712,81.703981 172.620011,78.6660113 170.436,76.398 C168.251989,74.1299887 165.508017,72.996 162.204,72.996 C158.843983,72.996 156.072011,74.1299887 153.888,76.398 C151.703989,78.6660113 150.612,81.703981 150.612,85.512 C150.612,89.320019 151.703989,92.3579887 153.888,94.626 C156.072011,96.8940113 158.843983,98.028 162.204,98.028 Z M242.928,85.68 C242.928,85.8480008 242.844001,87.0239891 242.676,89.208 L208.488,89.208 C209.104003,92.008014 210.559989,94.2199919 212.856,95.844 C215.152011,97.4680081 218.007983,98.28 221.424,98.28 C223.776012,98.28 225.861991,97.9300035 227.682,97.23 C229.502009,96.5299965 231.195992,95.4240076 232.764,93.912 L239.736,101.472 C235.479979,106.344024 229.264041,108.78 221.088,108.78 C215.991975,108.78 211.48402,107.78601 207.564,105.798 C203.64398,103.80999 200.620011,101.052018 198.492,97.524 C196.363989,93.9959824 195.3,89.9920224 195.3,85.512 C195.3,81.0879779 196.34999,77.0980178 198.45,73.542 C200.55001,69.9859822 203.433982,67.2140099 207.102,65.226 C210.770018,63.2379901 214.871977,62.244 219.408,62.244 C223.832022,62.244 227.835982,63.1959905 231.42,65.1 C235.004018,67.0040095 237.81799,69.7339822 239.862,73.29 C241.90601,76.8460178 242.928,80.9759765 242.928,85.68 Z M219.492,72.156 C216.523985,72.156 214.03201,72.9959916 212.016,74.676 C209.99999,76.3560084 208.768002,78.6519854 208.32,81.564 L230.58,81.564 C230.131998,78.7079857 228.90001,76.4260085 226.884,74.718 C224.86799,73.0099915 222.404015,72.156 219.492,72.156 Z M264.18,68.88 C265.748008,66.6959891 267.861987,65.0440056 270.522,63.924 C273.182013,62.8039944 276.247983,62.244 279.72,62.244 L279.72,74.34 C278.263993,74.2279994 277.284003,74.172 276.78,74.172 C273.027981,74.172 270.088011,75.2219895 267.96,77.322 C265.831989,79.4220105 264.768,82.571979 264.768,86.772 L264.768,108.108 L251.664,108.108 L251.664,62.916 L264.18,62.916 L264.18,68.88 Z" id="Spider-Copy-3"></path>
            </g>
            <g id="Netpeak-Spider-logo" fill-rule="nonzero">
                <path d="M72,144 C32.235498,144 0,111.764502 0,72 C0,32.235498 32.235498,0 72,0 C111.764502,0 144,32.235498 144,72 C144,111.764502 111.764502,144 72,144 Z M72,117 C96.8528133,117 117,96.8528133 117,72 C117,47.1471862 96.8528133,27 72,27 C47.1471862,27 27,47.1471862 27,72 C27,96.8528133 47.1471862,117 72,117 Z" id="Combined-Shape" fill="#E6E8EA"></path>
                <path d="M35.2700916,117.033114 C28.5691668,110.345249 24.1513652,102.690769 21.6680472,93.4655697 C21.5529222,93.037896 21.4519094,92.6147466 21.365009,92.1961233 L21.3650134,92.1961224 C21.2072536,91.4361489 21.554415,90.6606369 22.226325,90.2720691 C28.2762581,86.7733731 33.0046,84.1834948 36.4113508,82.5024344 L40.3297307,80.5689077 L36.8238118,80.6829848 C31.573815,80.8538124 25.0074282,81.686851 19.9129085,82.8283631 L19.6961638,82.8769287 C18.8619803,83.0638422 18.2743339,83.811703 18.2900304,84.6664266 L18.3137971,85.9605983 C18.5291773,97.6957542 22.7118417,109.22852 30.0368683,118.284374 C30.0368683,118.284374 30.0368683,118.284374 30.0368683,118.284374 C30.0983148,118.360339 30.0865449,118.471733 30.0105794,118.53318 C29.9419709,118.588675 29.8429575,118.585126 29.7784986,118.524861 C29.0207501,117.816369 28.1430264,116.939479 27.1453444,115.894168 C21.7062824,110.195452 18.4740862,105.751659 15.4684826,99.8402265 C11.6275972,92.2859568 9.52040232,84.4576019 9.03164283,75.9269794 L9.00726354,75.5014663 C8.97995682,75.0248573 9.32294898,74.6070512 9.7957476,74.5409968 C13.0663094,74.0840503 28.3354801,73.3987162 35.6895782,73.3787908 C39.6863258,73.3679499 40.0523576,73.3386518 39.4017278,73.0814054 C39.004734,72.9244447 36.9630518,72.1339465 34.8646561,71.3247373 C29.399334,69.2171377 26.45054,68.0190056 23.1887155,66.5806625 C19.7637489,65.0703758 12.6007852,61.4672539 10.0138708,59.9534392 C7.77814623,58.6451299 7.80318949,58.7319599 8.56849722,54.9421237 C10.1963366,46.8810054 13.4283952,39.8977574 18.4478606,33.596576 C20.3322371,31.2310363 25.7410658,25.6890152 27.0278892,24.8052676 C27.0870859,24.7646135 27.1680309,24.7796452 27.208685,24.8388419 C27.2411001,24.8860417 27.2388245,24.9488906 27.2030806,24.9936224 L27.1798674,25.0226727 C25.7279908,26.8396357 23.1729182,30.8886156 22.1835754,32.9402272 C19.9438637,37.5847319 18.7700752,41.6993112 17.8675555,48.069544 C17.6297881,49.7477837 17.5033605,51.0166507 17.4882724,51.8761447 L17.4882739,51.8761447 C17.4772512,52.504056 17.7942873,53.0923162 18.3248229,53.4283608 C19.0950073,53.9162005 19.8649806,54.3923224 20.6347429,54.8567264 C24.3385195,57.0912483 30.8714557,60.2895735 35.0708798,61.9242128 C38.9319071,63.4271283 44.1400391,65.2279431 44.2649667,65.1032487 C44.3108186,65.0574833 43.7225666,64.5231125 42.9577401,63.9157538 C41.1083747,62.4471479 36.3539499,58.3819457 36.2709077,58.1982696 C36.2347486,58.1182798 35.8803347,57.7903379 35.4833409,57.46951 C33.6372798,55.9776244 29.7626802,51.8491376 23.8595421,45.0840498 L23.8595318,45.0840588 C23.4024048,44.5601841 23.2878618,43.8198837 23.5652907,43.1823549 C24.6980174,40.5793597 25.6162251,38.6668569 26.3199136,37.4448464 C31.839928,27.8589339 38.9708228,21.5529646 49.5070167,16.940108 C50.8110552,16.369187 53.5984688,15.4367545 57.8692574,14.14281 L57.8692701,14.142852 C57.9755089,14.1106642 58.0877258,14.1706945 58.1199135,14.2769333 C58.1487665,14.3721653 58.1035954,14.4741748 58.0136891,14.5168189 C58.0136891,14.5168189 58.0136891,14.5168189 58.0136891,14.5168189 C53.2236414,16.78881 47.7500151,21.0810473 44.0888045,25.4362465 C40.3579843,29.8742536 36.5432627,36.3389366 34.9125566,40.9869283 L34.6159625,41.8323041 C34.434154,42.3505086 34.4988574,42.9233621 34.7916724,43.3879582 L34.8351996,43.4570208 C36.4640632,46.0414827 40.4746833,50.1260936 43.732562,52.5185306 C44.9000811,53.3759017 48.0721541,55.4051137 49.7132473,56.3444446 C52.4656617,57.9198717 60.8931959,61.0083704 61.0913422,60.8079348 C61.1343756,60.7643925 53.7198039,84.1670915 53.6859271,84.1332787 C53.5251429,83.9727982 45.8163564,86.8466205 43.531604,88.1965192 C39.6127634,90.5118948 35.7402903,93.3813117 32.9780111,96.0164964 C32.6461187,96.3331182 32.5326695,96.8159403 32.6888222,97.2472383 L33.1412288,98.4967983 C34.1766367,101.356637 35.9969786,105.550264 37.0742856,107.557606 C38.4739378,110.165577 41.0840945,114.261471 42.3868596,115.894168 C44.6232235,118.696886 44.8841945,118.999884 46.6197893,120.808623 C51.1686779,125.549238 57.3807126,129.951094 63.8155038,132.993521 C63.8155038,132.993521 63.8155038,132.993521 63.8155038,132.993521 C63.9370551,133.050992 63.9890025,133.196117 63.9315316,133.317669 C63.8787853,133.429228 63.7509132,133.483677 63.6339346,133.44439 C63.4657076,133.387886 63.2964276,133.330549 63.1260958,133.272373 C51.0858007,129.160156 42.2734397,124.022796 35.2700916,117.033114 Z" id="path3477" fill="#33A1FD"></path>
                <path d="M107.216094,117.033114 C100.515169,110.345249 96.0973676,102.690769 93.6140489,93.4655697 C93.4989245,93.037896 93.3979112,92.6147466 93.3110108,92.1961233 L93.3110153,92.1961224 C93.1532552,91.4361489 93.5004167,90.6606369 94.172327,90.2720691 C100.22226,86.7733731 104.950602,84.1834948 108.357353,82.5024344 L112.275733,80.5689077 L108.769814,80.6829848 C103.519817,80.8538124 96.9534305,81.686851 91.8589103,82.8283631 L91.642166,82.8769287 C90.8079821,83.0638422 90.2203361,83.811703 90.2360321,84.6664266 L90.2597993,85.9605983 C90.4751792,97.6957542 94.6578437,109.22852 101.98287,118.284374 C101.98287,118.284374 101.98287,118.284374 101.98287,118.284374 C102.044317,118.360339 102.032547,118.471733 101.956582,118.53318 C101.887973,118.588675 101.78896,118.585126 101.724501,118.524861 C100.966752,117.816369 100.089029,116.939479 99.0913463,115.894168 C93.6522845,110.195452 90.4200884,105.751659 87.4144847,99.8402265 C83.5735993,92.2859568 81.4664045,84.4576019 80.977645,75.9269794 L80.9532657,75.5014663 C80.9259589,75.0248573 81.2689511,74.6070512 81.7417497,74.5409968 C85.0123115,74.0840503 100.281482,73.3987162 107.63558,73.3787908 C111.632328,73.3679499 111.99836,73.3386518 111.34773,73.0814054 C110.950736,72.9244447 108.909054,72.1339465 106.810658,71.3247373 C101.345336,69.2171377 98.3965418,68.0190056 95.1347177,66.5806625 C91.7097506,65.0703758 84.5467873,61.4672539 81.9598729,59.9534392 C79.7241483,58.6451299 79.7491916,58.7319599 80.5144993,54.9421237 C82.1423388,46.8810054 85.3743974,39.8977574 90.3938624,33.596576 C92.2782392,31.2310363 97.6870682,25.6890152 98.9738909,24.8052676 C99.0330884,24.7646135 99.1140326,24.7796452 99.1546874,24.8388419 C99.1871018,24.8860417 99.1848266,24.9488906 99.1490831,24.9936224 L99.1258694,25.0226727 C97.673993,26.8396357 95.11892,30.8886156 94.1295779,32.9402272 C91.8898658,37.5847319 90.7160777,41.6993112 89.8135576,48.069544 C89.5757902,49.7477837 89.4493626,51.0166507 89.4342746,51.8761447 L89.434276,51.8761447 C89.4232534,52.504056 89.7402895,53.0923162 90.2708252,53.4283608 C91.0410092,53.9162005 91.8109826,54.3923224 92.5807454,54.8567264 C96.2845217,57.0912483 102.817458,60.2895735 107.016882,61.9242128 C110.877909,63.4271283 116.086041,65.2279431 116.210969,65.1032487 C116.25682,65.0574833 115.668569,64.5231125 114.903742,63.9157538 C113.054377,62.4471479 108.299952,58.3819457 108.21691,58.1982696 C108.180751,58.1182798 107.826337,57.7903379 107.429343,57.46951 C105.583282,55.9776244 101.708682,51.8491376 95.8055444,45.0840498 L95.8055336,45.0840588 C95.3484065,44.5601841 95.2338635,43.8198837 95.511293,43.1823549 C96.6440195,40.5793597 97.5622274,38.6668569 98.2659158,37.4448464 C103.78593,27.8589339 110.916825,21.5529646 121.453019,16.940108 C122.757057,16.369187 125.544471,15.4367545 129.815259,14.14281 L129.815272,14.142852 C129.921511,14.1106642 130.033728,14.1706945 130.065916,14.2769333 C130.094769,14.3721653 130.049598,14.4741748 129.959691,14.5168189 C129.959691,14.5168189 129.959691,14.5168189 129.959691,14.5168189 C125.169644,16.78881 119.696017,21.0810473 116.034807,25.4362465 C112.303986,29.8742536 108.489265,36.3389366 106.858559,40.9869283 L106.561965,41.8323041 C106.380157,42.3505086 106.444859,42.9233621 106.737674,43.3879582 L106.781202,43.4570208 C108.410065,46.0414827 112.420686,50.1260936 115.678564,52.5185306 C116.846083,53.3759017 120.018156,55.4051137 121.65925,56.3444446 C124.411664,57.9198717 132.839198,61.0083704 133.037345,60.8079348 C133.080377,60.7643925 125.665806,84.1670915 125.63193,84.1332787 C125.471145,83.9727982 117.762358,86.8466205 115.477606,88.1965192 C111.558766,90.5118948 107.686292,93.3813117 104.924013,96.0164964 C104.592121,96.3331182 104.478672,96.8159403 104.634824,97.2472383 L105.087231,98.4967983 C106.122639,101.356637 107.94298,105.550264 109.020288,107.557606 C110.41994,110.165577 113.030096,114.261471 114.332862,115.894168 C116.569226,118.696886 116.830197,118.999884 118.565791,120.808623 C123.11468,125.549238 129.326715,129.951094 135.761506,132.993521 C135.761506,132.993521 135.761506,132.993521 135.761506,132.993521 C135.883057,133.050992 135.935005,133.196117 135.877534,133.317669 C135.824788,133.429228 135.696915,133.483677 135.579937,133.44439 C135.411709,133.387886 135.242429,133.330549 135.072098,133.272373 C123.031803,129.160156 114.219442,124.022796 107.216094,117.033114 Z" id="path3477-copy-2" fill="#33A1FD" transform="translate(107.973477, 73.795631) scale(-1, 1) translate(-107.973477, -73.795631) "></path>
                <path d="M79.4279937,47.627525 C78.0759979,48.4809945 77.4,49.4051529 77.4,50.4 C77.4,52.3882251 79.0117749,54 81,54 C82.0812737,54 83.1572315,53.1734486 84.2278735,51.5203459 L84.2279989,51.5204271 C84.2819945,51.4370563 84.3933519,51.413243 84.4767226,51.4672386 C84.5272189,51.4999428 84.5580186,51.5557295 84.5587908,51.6158862 L84.682685,61.2676768 C90.6275619,78.0296054 93.6,89.2570465 93.6,94.95 C93.6,111.366286 86.6709938,123.082177 72.8129813,130.097672 C72.3018621,130.356421 71.6980981,130.356421 71.186979,130.097671 C57.3289956,123.082159 50.4,111.366274 50.4,94.95 C50.4,89.2669343 53.3652456,78.0646954 59.2957367,61.3432831 L59.4401038,51.613717 C59.4415769,51.51437 59.5233079,51.4350274 59.622655,51.4365006 C59.6827112,51.4373911 59.7383616,51.4681938 59.7710039,51.5186122 C60.8420164,53.1728707 61.9183484,54 63,54 C64.9882251,54 66.6,52.3882251 66.6,50.4 C66.6,49.4051503 65.9239987,48.4809898 64.571996,47.6275184 L64.5720039,47.6275059 C63.7313804,47.0968501 63.480102,45.9852085 64.0107579,45.1445851 C64.0143034,45.1389684 64.0178801,45.1333714 64.0214877,45.1277943 C65.631075,42.6394699 67.1064139,41.076025 68.4475043,40.4374596 C67.8536959,41.1999741 67.5,42.158682 67.5,43.2 C67.5,45.6852813 69.5147187,47.7 72,47.7 C74.4852813,47.7 76.5,45.6852813 76.5,43.2 C76.5,42.158682 76.1463041,41.1999741 75.5524957,40.4374596 C76.8935885,41.0760262 78.3689302,42.6394755 79.9785209,45.1278076 L79.9785083,45.1278157 C80.5184369,45.9625135 80.2794793,47.0768683 79.4447816,47.616797 C79.4392054,47.6204039 79.4336094,47.62398 79.4279937,47.627525 Z" id="Combined-Shape" fill="#33A1FD"></path>
                <g id="Rectangle-5-Copy" transform="translate(56.700000, 63.900000)" fill="#99D0FE">
                    <path d="M21.8977695,11.5344693 L8.70223048,11.5344693 L15.3,0.47632064 L21.8977695,11.5344693 Z M25.119643,16.9344693 L30.6,26.119786 L0,26.119786 L5.48035704,16.9344693 L25.119643,16.9344693 Z" id="Combined-Shape"></path>
                </g>
            </g>
        </g>
    </g>
</svg>
